/* XPM */
static char * logana_xpm[] = {
"32 32 138 2",
"  	c None",
". 	c #000000",
"+ 	c #1F1F1F",
"@ 	c #383838",
"# 	c #3F3F3F",
"$ 	c #1C1C1C",
"% 	c #0E0E0E",
"& 	c #878787",
"* 	c #FFFFFF",
"= 	c #767676",
"- 	c #060606",
"; 	c #222222",
"> 	c #FEFEFE",
", 	c #E8E8E8",
"' 	c #E1E1E1",
") 	c #E9E9E9",
"! 	c #181818",
"~ 	c #0B0B0B",
"{ 	c #1E1E1E",
"] 	c #272727",
"^ 	c #FBFBFB",
"/ 	c #606060",
"( 	c #373737",
"_ 	c #5F5F5F",
": 	c #555555",
"< 	c #B3B3B3",
"[ 	c #E3E3E3",
"} 	c #F5F5F5",
"| 	c #E0E0E0",
"1 	c #040404",
"2 	c #FDFDFD",
"3 	c #8F8F8F",
"4 	c #C1C1C1",
"5 	c #020202",
"6 	c #F7F7F7",
"7 	c #030303",
"8 	c #FCFCFC",
"9 	c #9F9F9F",
"0 	c #969696",
"a 	c #121212",
"b 	c #161616",
"c 	c #111111",
"d 	c #7A7A7A",
"e 	c #353535",
"f 	c #A2A2A2",
"g 	c #CACACA",
"h 	c #2A2A2A",
"i 	c #BDBDBD",
"j 	c #B0B0B0",
"k 	c #292929",
"l 	c #3A3A3A",
"m 	c #C0C0C0",
"n 	c #949494",
"o 	c #424242",
"p 	c #636363",
"q 	c #141414",
"r 	c #ADADAD",
"s 	c #F9F9F9",
"t 	c #8C8C8C",
"u 	c #323232",
"v 	c #C9C9C9",
"w 	c #6E6E6E",
"x 	c #DDDDDD",
"y 	c #6A6A6A",
"z 	c #C2C2C2",
"A 	c #919191",
"B 	c #E2E2E2",
"C 	c #9B9B9B",
"D 	c #818181",
"E 	c #333333",
"F 	c #131313",
"G 	c #9D9D9D",
"H 	c #414141",
"I 	c #797979",
"J 	c #585858",
"K 	c #CCCCCC",
"L 	c #8E8E8E",
"M 	c #494949",
"N 	c #3E3E3E",
"O 	c #ACACAC",
"P 	c #9E9E9E",
"Q 	c #D6D6D6",
"R 	c #BFBFBF",
"S 	c #F2F2F2",
"T 	c #8A8A8A",
"U 	c #777777",
"V 	c #DCDCDC",
"W 	c #A7A7A7",
"X 	c #232323",
"Y 	c #808080",
"Z 	c #C3C3C3",
"` 	c #DEDEDE",
" .	c #F8F8F8",
"..	c #C5C5C5",
"+.	c #848484",
"@.	c #2C2C2C",
"#.	c #070707",
"$.	c #010101",
"%.	c #B4B4B4",
"&.	c #FAFAFA",
"*.	c #262626",
"=.	c #D9D9D9",
"-.	c #CBCBCB",
";.	c #DADADA",
">.	c #F6F6F6",
",.	c #0A0A0A",
"'.	c #464646",
").	c #EBEBEB",
"!.	c #EDEDED",
"~.	c #F3F3F3",
"{.	c #E6E6E6",
"].	c #A6A6A6",
"^.	c #1D1D1D",
"/.	c #282828",
"(.	c #EAEAEA",
"_.	c #454545",
":.	c #393939",
"<.	c #191919",
"[.	c #828282",
"}.	c #3C3C3C",
"|.	c #7F7F7F",
"1.	c #939393",
"2.	c #8D8D8D",
"3.	c #202020",
"4.	c #AEAEAE",
"5.	c #1B1B1B",
"6.	c #151515",
"7.	c #080808",
"8.	c #909090",
"9.	c #AAAAAA",
"0.	c #BCBCBC",
"a.	c #252525",
"b.	c #313131",
"c.	c #2F2F2F",
"d.	c #2E2E2E",
"e.	c #2B2B2B",
"f.	c #2D2D2D",
"g.	c #363636",
". . . . . . . . . . . . . . + @ # @ $ . . . . . . . . . . . . . ",
". . . . . . . . . . . % & * * * * * * * = - . . . . . . . . . . ",
". . . . . . . . . . ; * * > * , ' ) * > > * ! . . . . . . . . . ",
". . . . . . . . . ~ * * > * { . . . ] * * > ^ . . . . . . . . . ",
". . . . . . . . . / * * * ( . . . . . _ * * * : . . . . . . . . ",
". . . . . . . . . < * * * - [ } } } | 1 2 * > 3 . . . . . . . . ",
". . . . . . . . . 4 * * * 5 6 * * * } 7 8 * * 9 . . . . . . . . ",
". . . . . . . . . 0 > * * a b ! ! ! b c > * * d . . . . . . . . ",
". . . . . . . . . e * * > f . . . . . g * * * h . . . . . . . . ",
". . . . 7 . . . . . i * > * j e k l m * > * n . . . . . . . . . ",
". . . . o 6 p q . . . r 8 * * * * * * * s t . . . . ~ u v 7 . . ",
". . . . . 8 > * w . . . . = x * * * , y . . . . b z * * A . . . ",
". . . . . B > * 9 . . . . . q * * * C . . . . . D * > 8 - . . . ",
". . . . . b * > * E . . . . F * * * G . . . . H * * * I . . . . ",
". . . . . . J * > * K L p M N * * * O N p P Q * > * R . . . . . ",
". . . . . . . N S * * * * * * > * > * * * * > * * T . . . . . . ",
". . . . . . . . . U V * * * * * * * * * * * } W X . . . . . . . ",
". . . . . . . . . . . ! Y Z ` * * *  ...+.@.. . . . . . . . . . ",
". . . . . . . . . . . . . #.. * * * g $.. . . . . . . . . . . . ",
". . . . . . . . . 1 N %.* * * > * > * * &.O e 1 . . . . . . . . ",
". . . . . . . 7 v 8 * * * > * * * * * > * * * 8 R . . . . . . . ",
". . . . . . *.> * > * > * * * =.-.;.* * * > * > * >.,.. . . . . ",
". . . . . . =.> * * * 2 '.a . . . . . c N ).* * * * x . . . . . ",
". . . . . . !.* * * ~.. . . . . . . . . . . =.> * * S . . . . . ",
". . . . . . -.* * * {.. . . . . . . . . . . ].* * > , . . . . . ",
". . . . . . ^.* > * * /.. . . . . . . . . . (.> > * _.. . . . . ",
". . . . . . . :.2 * > * <.. . . . . . . 1 V * > * [.. . . . . . ",
". . . . . . . . - =.> > * }.. . . . . % ^ * * * # . . . . . . . ",
". . . . . l D |.|.|.1.* > * 2.. . . 3.2 * * 4.5.6.% 7.. . . . . ",
". . . . . 8.* * * * * > * * 9.. . . X * * > * * * * *  .. . . . ",
". . . . . C * * * * * * * * 0.. . . a.* * * * * * * * 2 . . . . ",
". . . . . <.b.c.d.@.e.k /.*.b . . . $.q <.{ X /.f.b.g.g.. . . . "};
